
        <svg xmlns="http://www.w3.org/2000/svg" xmlns:xlink="http://www.w3.org/1999/xlink" version="1.1" width="3203.1112254122795" 
        height="861.1915957480657" viewBox="0 0 3203.1112254122795 861.1915957480657">
			
			<g transform="scale(10.155561270613982) translate(10, 10)">
				<defs id="SvgjsDefs39230"><linearGradient id="SvgjsLinearGradient39237"><stop id="SvgjsStop39238" stop-color="#006838" offset="0"></stop><stop id="SvgjsStop39239" stop-color="#96cf24" offset="1"></stop></linearGradient></defs><g id="SvgjsG39231" featureKey="nameLeftFeature-0" transform="matrix(2.092978832760679,0,0,2.092978832760679,-1.8418216123518165,8.679583208813094)" fill="#59a52c"><path d="M11.08 3.2399999999999984 l0 16.76 l-3.7 0 l-2.92 -9.04 l0 9.04 l-3.58 0 l0 -16.76 l3.8 0 l2.8 8.46 l0 -8.46 l3.6 0 z M1.28 19.6 l2.78 0 l0 -11.18 l3.62 11.18 l3 0 l0 -15.96 l-2.8 0 l0 10.54 l-3.48 -10.54 l-3.12 0 l0 15.96 z M16.16 20.22 c-1.72 0.02 -3.48 -1.58 -3.48 -3.72 l0 -9.76 c0 -2.08 1.72 -3.7 3.38 -3.72 l2.26 0 c1.68 -0.02 3.46 1.62 3.46 3.72 l0.02 9.76 c0 2.14 -1.78 3.74 -3.48 3.72 l-2.16 0 z M13.080000000000002 16.5 c0 1.72 1.36 3.32 3.08 3.32 l2.16 0 c1.7 0 3.08 -1.62 3.08 -3.32 l-0.02 -9.76 c0 -1.68 -1.38 -3.32 -3.06 -3.32 l-2.26 0 c-1.62 0 -2.98 1.68 -2.98 3.32 l0 9.76 z M17.04 17.72 c-0.78 0 -1.22 -0.48 -1.22 -1.28 l0 -8.12 c0 -0.16 -0.02 -0.4 -0.02 -0.66 c-0.02 -0.28 -0.02 -0.58 0.02 -0.86 c0.06 -0.56 0.32 -1.32 1.2 -1.32 l0.44 0 c0.76 0 1.2 0.74 1.2 1.3 l0 9.6 c0 1.14 -0.66 1.34 -1.62 1.34 z M16.22 16.38 c-0.04 0.62 0.32 0.96 0.74 0.94 l0.04 0 c0.74 0 1.22 -0.04 1.26 -0.94 c0 -0.5 -0.02 -0.98 0 -1.46 l0 -7.32 c0 -0.24 -0.02 -0.5 0 -0.76 c0.02 -0.56 -0.38 -0.94 -0.8 -0.96 l-0.44 0 c-0.42 0 -0.84 0.38 -0.8 0.96 c0.02 0.26 0 0.52 0 0.76 l0 7.76 c-0.02 0.32 0 0.54 0 1.02 z M33.08 5.880000000000001 l-3.3 0 l0 14.12 l-3.56 0 l0 -14.12 l-3.3 0 l0 -2.64 l10.16 0 l0 2.64 z M29.38 19.6 l0 -14.12 l3.3 0 l0 -1.84 l-9.36 0 l0 1.84 l3.3 0 l0 14.12 l2.76 0 z M37.800000000000004 12.54 l0 4.82 l4.52 0 l0 2.64 l-8.08 0 l0 -16.76 l8.08 0 l0 2.64 l-4.52 -0.02 l0 4.08 l2.84 0 l0 2.6 l-2.84 0 z M40.24 12.14 l0 -1.8 l-2.84 0 l0 -4.88 l4.52 0.02 l0 -1.84 l-7.28 0 l0 15.96 l7.28 0 l0 -1.84 l-4.52 0 l0 -5.62 l2.84 0 z"></path></g><g id="SvgjsG39232" featureKey="inlineSymbolFeature-0" transform="matrix(0.7337289303141722,0,0,0.7337289303141722,101.92112839474646,-4.2864444164933015)" fill="url(#SvgjsLinearGradient39237)"><polygon xmlns="http://www.w3.org/2000/svg" points="90.135,67.982 85.863,64.736 80.121,63.818 74.41,65.879 71.211,68.902 69.041,73.57 68.822,78.209 71.352,82.309   74.652,84.361 78.9,84.059 82.734,81.699 84.783,77.781 84.701,74.197 82.041,71.213 77.863,70.982 75.023,73.191 74.338,75.785   75.676,77.818 77.602,77.898 79.1,76.488 77.332,76.832 76.215,75.467 76.539,73.891 78.412,72.955 80.447,73.264 82.076,75.426   82.01,78.02 80.549,79.984 78.119,81.164 75.162,80.881 73.404,79.422 72.393,77.051 72.217,74.107 73.516,71.307 76.125,68.998   80.41,67.816 84.434,68.857 87.139,71.213 88.611,74.189 88.506,79.469 86.541,83.725 84.006,86.115 80.957,87.711 77.592,88.457   73.666,88.006 70.611,86.512 68.004,84.135 66.688,81.58 65.59,78.047 65.158,74.709 64.658,68.447 64.557,62.551 63.367,56.619   62.443,54.998 62.143,51.574 62.441,48.871 63.867,48.408 67.152,49.793 69.297,51.916 69.182,54.637 69.186,54.639 68.555,54.957   68.09,56.332 68.738,57.619 70.121,58.059 71.43,57.402 71.895,56.023 71.244,54.738 70.633,54.545 70.693,52.119 72.305,51.58   73.541,53.445 73.547,53.445 73.229,54.074 73.666,55.459 74.949,56.111 76.326,55.65 76.992,54.348 76.551,52.961 75.27,52.309   74.66,52.512 73.277,50.678 73.984,49.287 76.475,49.562 76.674,50.192 77.959,50.845 79.336,50.386 80,49.08 79.562,47.695   78.279,47.041 76.902,47.503 76.592,48.111 74.066,47.987 73.6,46.507 75.568,44.574 76.104,44.837 77.475,44.354 78.117,43.038   77.656,41.66 76.361,41.027 74.992,41.511 74.35,42.827 74.541,43.4 72.754,45.52 71.516,44.889 71.607,42.058 71.596,42.051   72.145,41.848 72.768,40.524 72.289,39.153 70.988,38.539 69.625,39.041 69,40.365 69.479,41.736 70.041,42.002 70.217,44.679   68.328,45.31 68.328,45.311 67.918,45.447 67.902,45.475 67.07,45.796 58.795,42.325 56.758,42.892 55.539,45.002 55.408,50.186   49.797,48.977 44.755,47.366 40.826,45.27 44.142,44.122 48.19,41.4 47.948,37.323 48.939,35.981 50.34,34.113 52.418,34.946   52.424,34.944 52.518,35.643 53.664,36.533 55.09,36.341 55.961,35.179 55.768,33.728 54.619,32.837 53.193,33.029 52.807,33.544   50.626,32.819 50.419,31.273 52.623,30.083 53.146,30.488 54.574,30.296 55.445,29.135 55.25,27.684 54.104,26.793 52.676,26.985   51.805,28.147 51.896,28.824 49.746,30.156 48.521,29.205 49.042,26.495 49.633,26.406 50.485,25.23 50.267,23.782 49.104,22.911   47.681,23.125 46.828,24.302 47.048,25.75 47.532,26.112 47.264,28.873 45.887,29.058 44.354,26.676 44.339,26.678 44.677,26.199   44.438,24.754 43.265,23.898 41.845,24.133 41.009,25.32 41.246,26.766 42.419,27.622 43.034,27.52 44.699,29.622 43.449,31.837   43.815,34.558 45,37.066 44.567,39.896 42.788,40.396 36.861,38.752 35.531,34.422 35.564,31.896 38.18,27.741 39.516,24.863   40.122,22.924 39.979,21.004 39.022,19.598 37.076,18.888 32.59,12.537 31.699,12.015 31.32,9.244 31.311,9.108 31.269,9.03   30.01,6.595 29.896,6.377 29.688,6.34 27.018,5.87 26.858,5.842 26.743,5.915 24.992,7.026 24.883,7.095 24.852,7.202 24.349,8.926   24.312,9.05 24.378,9.161 25.397,10.911 25.485,11.063 25.663,11.061 27.405,11.032 27.507,11.03 27.586,10.967 28.445,10.287   28.534,10.215 28.555,10.102 28.781,8.771 28.807,8.619 28.708,8.52 27.954,7.756 27.845,7.646 27.719,7.679 26.653,7.957   26.544,7.985 26.524,8.053 26.271,8.919 26.784,8.321 27.665,8.189 28.167,8.804 27.982,9.889 27.294,10.435 25.828,10.458   24.96,8.972 25.391,7.495 26.996,6.688 29.276,7.162 30.129,9.39 30.195,12.152 29.238,12.663 24.966,20.294 23.138,21.372   22.422,22.573 22.406,24.07 23.08,25.72 24.562,27.509 26.128,30.323 28.083,32.625 28.788,35.745 28.791,39.015 22.432,40.956   19.849,37.965 20.49,35.073 19.22,33.116 20.718,31.451 20.717,31.446 21.405,31.599 22.637,30.827 22.947,29.423 22.156,28.205   20.728,27.887 19.494,28.658 19.184,30.064 19.534,30.603 18.104,32.4 16.579,32.063 16.223,29.583 16.783,29.231 17.094,27.825   16.306,26.606 14.875,26.291 13.643,27.061 13.333,28.467 14.122,29.685 14.788,29.833 15.301,32.31 13.985,33.132 11.62,31.708   11.74,31.123 10.93,29.918 9.496,29.624 8.276,30.415 7.988,31.825 8.797,33.032 10.233,33.324 10.739,32.995 13.24,34.196   12.939,35.555 10.175,36.173 10.17,36.187 9.837,35.706 8.399,35.431 7.192,36.238 6.922,37.652 7.749,38.846 9.188,39.121   10.396,38.313 10.512,37.703 13.06,36.862 15.86,39.226 19.548,44.415 22.007,45.389 25.708,45.665 28.281,45.452 28.905,48.23   31.009,51.664 34.663,55.117 38.689,57.395 43.731,59.008 48.953,60.312 45.351,62.562 42.909,64.936 46.342,71.375 46.154,72.242   44.273,73.764 42.11,72.176 42.19,71.561 41.291,70.418 39.838,70.232 38.683,71.113 38.501,72.541 39.398,73.682 40.851,73.865   41.318,73.512 41.316,73.525 43.754,74.971 43.618,76.354 40.871,76.723 40.49,76.252 39.034,76.086 37.891,76.982 37.729,78.412   38.643,79.543 40.097,79.705 41.242,78.812 41.31,78.221 43.996,77.598 44.994,78.787 43.74,80.984 43.061,80.918 41.932,81.83   41.792,83.266 42.725,84.379 44.182,84.521 45.31,83.607 45.451,82.174 45.024,81.666 46.135,79.418 47.688,79.57 48.489,81.721   47.99,82.125 47.851,83.559 48.782,84.674 50.24,84.814 51.371,83.9 51.51,82.469 50.576,81.352 49.875,81.285 49.878,81.281   48.97,79.234 50.292,78.164 52.369,79.42 52.205,80.039 52.939,81.277 54.35,81.627 55.607,80.877 55.979,79.473 55.244,78.234   53.834,77.887 53.227,78.25 53.227,78.244 50.869,76.881 50.232,73.93 49.801,70.811 48.914,68.512 51.922,67.18 54.074,65.709   54.947,64.465 56.602,70.096 57.629,76.402 58.496,81.053 60.529,85.645 63.527,89.453 67.32,92.236 73.162,94.158 78.744,94.035   83.162,92.561 87.453,89.365 90.846,85.469 93.057,79.348 93.078,72.699 "></polygon></g><g id="SvgjsG39233" featureKey="nameRightFeature-0" transform="matrix(2.0930231629738403,0,0,2.0930231629738403,181.16744269138414,8.679069588724643)" fill="#000000"><path d="M8.2 17.72 c0.22 0.02 0.42 0.02 0.64 0.02 c0.1 0 0.26 0 0.38 -0.04 c0.5 -0.08 0.84 -0.42 0.84 -1.06 l0 -3.38 l-1.54 0 l0 -2.32 l4.64 0 l0 5.56 c0 2 -1.42 3.44 -2.98 3.68 c-0.24 0.04 -0.48 0.04 -0.72 0.04 c-0.2 0 -0.38 -0.02 -0.56 -0.02 l-1.28 0 c-1.74 0 -3.4 -1.5 -3.4 -3.7 l0 -9.78 c0 -2.18 1.68 -3.7 3.4 -3.7 l2.12 0 c1.98 0 3.42 1.8 3.42 3.72 l0 2.36 l-3.1 0 c0 -0.38 0 -0.78 -0.02 -1.16 c0 -0.14 0 -0.26 -0.04 -0.4 c-0.02 -0.34 -0.06 -0.68 -0.1 -1 c-0.04 -0.78 -0.46 -1.06 -1.16 -1.06 c-0.18 0 -0.36 0.02 -0.54 0.02 c-0.58 0.1 -0.9 0.54 -0.9 1.12 l0 9.6 c0 0.6 0.14 1.5 0.9 1.5 z M21.2 12.36 l-3.2 0 l0 5.36 l4.84 0 l0 2.28 l-7.86 0 l0 -16.78 l7.86 0 l0 2.28 l-4.84 0 l0 4.62 l3.2 0 l0 2.24 z M24.42 16.5 l0 -9.78 c0.02 -2.18 1.68 -3.68 3.4 -3.7 l2.14 0 c1.72 0 3.38 1.54 3.38 3.7 l0 2.48 l-3.06 0 l0 -1.66 c-0.02 -1.96 -0.26 -2.04 -1.84 -2.04 c-0.5 0 -1.02 0.18 -1.02 1.08 l0 10.06 c0 0.94 0.74 1.1 1.36 1.1 c1.42 0 1.48 -1.48 1.5 -2.56 l0 -0.82 l3.06 0 l0 2.16 c0 1.88 -1.42 3.68 -3.38 3.68 l-2.14 0 c-1.72 0 -3.38 -1.48 -3.4 -3.7 z M41.04 9.44 l3.9 10.56 l-3.08 0 l-3 -7.86 l-0.72 0.88 l0 6.98 l-3.06 0 l0 -16.78 l3.06 0 l-0.02 5.76 c1.3 -1.9 2.58 -3.78 3.76 -5.76 l3.2 0 z M54.58 6.720000000000001 l0 9.78 c0 2.2 -1.64 3.7 -3.38 3.7 l-2.14 0 c-1.74 0 -3.38 -1.48 -3.38 -3.7 l0 -9.78 c0 -2.2 1.66 -3.7 3.4 -3.7 l2.12 0 c1.72 0.02 3.38 1.52 3.38 3.7 z M48.68 8.06 l0 7.5 c0 0.38 0.02 0.66 0.06 1.14 c0.02 0.82 0.56 1.02 1.26 1.02 c0.78 0 1.42 -0.02 1.54 -1.02 c0.02 -0.5 0.04 -1 0.04 -1.5 l0 -7.9 c0 -0.24 -0.02 -0.5 -0.02 -0.74 c-0.02 -0.62 -0.46 -1 -0.96 -1.06 c0 -0.02 -0.4 -0.02 -0.42 -0.02 c-1.46 0 -1.48 0.66 -1.48 1.82 c-0.02 0.24 -0.02 0.5 -0.02 0.76 z"></path></g>
			</g>
		</svg>
	